<svg width="50" height="50" viewBox="0 0 50 50" fill="none" xmlns="http://www.w3.org/2000/svg">
<circle cx="25" cy="25" r="25" fill="url(#paint0_linear_1_60)"/>
<path fill-rule="evenodd" clip-rule="evenodd" d="M28.2439 0C24.4421 8.65167 20.1004 19.6923 20.3205 20.0885C20.4544 20.3116 22.1944 20.5347 24.2022 20.5347C26.8792 20.5347 27.7269 20.6685 27.5931 21.0701C27.4592 21.3824 25.8976 26.0226 24.113 31.3766C21.9267 38.0691 21.0344 41.2815 21.3467 41.5938C21.6144 41.8615 22.016 41.9508 22.2391 41.7723C22.9976 41.3261 39.3719 16.0284 39.4612 15.2699C39.5058 14.6453 38.9258 14.4668 35.8918 14.2883L32.2779 14.0652L35.758 6.25729C36.2385 5.20892 36.6896 4.18996 37.0949 3.24424C36.5869 2.93837 36.0671 2.65006 35.5364 2.38015L34.9549 3.66951C33.8841 6.21267 32.2779 9.78202 31.4301 11.6113C30.5824 13.4406 30.0024 15.1807 30.0916 15.493C30.2255 15.8499 31.4748 16.073 33.661 16.1622L37.0073 16.2961L31.3855 24.9071C28.307 29.6365 25.7192 33.429 25.6299 33.3397C25.5407 33.2505 26.4777 30.1719 27.6823 26.5133C28.9316 22.8548 29.8239 19.6424 29.7347 19.33C29.6008 18.9731 28.2177 18.75 25.9869 18.6608L22.4175 18.5269L26.4777 8.80045L29.9842 0.345748C29.4115 0.210547 28.8311 0.0950465 28.2439 0Z" fill="white"/>
<defs>
<linearGradient id="paint0_linear_1_60" x1="25" y1="0" x2="25" y2="50" gradientUnits="userSpaceOnUse">
<stop stop-color="#FFB45B"/>
<stop offset="1" stop-color="#FF440A"/>
</linearGradient>
</defs>
</svg>
